<?xml version="1.0" encoding="UTF-8"?>
<svg width="1024px" height="1024px" viewBox="0 0 1024 1024" version="1.1" xmlns:xlink="http://www.w3.org/1999/xlink" xmlns="http://www.w3.org/2000/svg" style="scroll-behavior: auto !important;">
  <defs>
    <linearGradient gradientUnits="objectBoundingBox" x1="0.0451168" y1="0.72221935" x2="0.99734604" y2="0.012625576" id="gradient_1">
      <stop offset="0%" stop-color="#8899FF"/>
      <stop offset="100%" stop-color="#88FF99"/>
    </linearGradient>
    <linearGradient gradientUnits="objectBoundingBox" x1="0.0451168" y1="0.72221935" x2="0.99734604" y2="0.012625576" id="gradient_2">
      <stop offset="0%" stop-color="#4E5EEE"/>
      <stop offset="100%" stop-color="#55CC66"/>
    </linearGradient>
    <filter filterUnits="userSpaceOnUse" color-interpolation-filters="sRGB" id="filter_1">
      <feFlood flood-opacity="0" result="BackgroundImageFix"/>
      <feColorMatrix in="SourceAlpha" type="matrix" values="0 0 0 0 0 0 0 0 0 0 0 0 0 0 0 0 0 0 128 0"/>
      <feOffset dx="0" dy="0"/>
      <feGaussianBlur stdDeviation="17.5"/>
      <feColorMatrix type="matrix" values="0 0 0 0 0.06666667 0 0 0 0 0.06666667 0 0 0 0 0.13333334 0 0 0 1 0"/>
      <feBlend mode="normal" in2="BackgroundImageFix" result="effect0_dropShadow"/>
      <feBlend mode="normal" in="SourceGraphic" in2="effect0_dropShadow" result="shape"/>
    </filter>
    <path d="M1024 0L1024 0L1024 1024L0 1024L0 0L1024 0Z" id="path_1"/>
    <path d="M161.51 337.249L161.51 218.111Q161.51 217.62 161.535 217.129Q161.559 216.639 161.607 216.15Q161.655 215.662 161.727 215.176Q161.799 214.69 161.895 214.209Q161.991 213.727 162.11 213.251Q162.229 212.775 162.372 212.305Q162.514 211.835 162.68 211.373Q162.845 210.911 163.033 210.457Q163.221 210.003 163.431 209.56Q163.641 209.116 163.872 208.683Q164.104 208.25 164.356 207.829Q164.608 207.408 164.881 206.999Q165.154 206.591 165.446 206.197Q165.739 205.802 166.05 205.423Q166.362 205.043 166.691 204.68Q167.021 204.316 167.368 203.969Q167.715 203.621 168.079 203.292Q168.443 202.962 168.823 202.651Q169.202 202.339 169.596 202.047Q169.991 201.754 170.399 201.481Q170.807 201.209 171.228 200.956Q171.65 200.704 172.083 200.472Q172.516 200.241 172.959 200.031Q173.403 199.821 173.857 199.633Q174.31 199.445 174.773 199.28Q175.235 199.114 175.705 198.972Q176.175 198.829 176.651 198.71Q177.127 198.591 177.609 198.495Q178.09 198.399 178.576 198.327Q179.062 198.255 179.55 198.207Q180.039 198.159 180.529 198.135Q181.02 198.111 181.51 198.111L878.88 198.111Q879.506 198.111 880.13 198.15Q880.755 198.189 881.376 198.267Q881.997 198.345 882.611 198.462Q883.226 198.579 883.832 198.734Q884.439 198.889 885.034 199.081Q885.629 199.274 886.212 199.503Q886.794 199.732 887.361 199.998Q887.927 200.263 888.476 200.563Q889.025 200.864 889.555 201.198Q890.084 201.532 890.591 201.898Q891.098 202.264 891.582 202.662Q892.065 203.059 892.523 203.486Q892.98 203.913 893.41 204.368Q893.84 204.822 894.241 205.303Q894.642 205.783 895.011 206.288Q895.381 206.793 895.719 207.32Q896.057 207.846 896.361 208.393Q896.665 208.94 896.934 209.505Q897.203 210.07 897.437 210.651Q897.67 211.231 897.867 211.825Q898.063 212.419 898.223 213.025Q898.382 213.63 898.503 214.244Q898.624 214.858 898.706 215.478Q898.788 216.098 898.832 216.723Q898.875 217.347 898.88 217.973Q898.884 218.598 898.849 219.223Q898.814 219.848 898.74 220.469Q898.667 221.091 898.554 221.706Q898.442 222.322 898.291 222.929Q898.14 223.536 897.952 224.133Q897.763 224.73 897.538 225.314Q897.312 225.897 897.051 226.466L623.376 821.66Q623.227 821.983 623.055 822.296Q622.884 822.608 622.69 822.907Q622.497 823.207 622.283 823.492Q622.069 823.776 621.835 824.045Q621.601 824.314 621.349 824.566Q621.096 824.817 620.827 825.05Q620.557 825.283 620.271 825.496Q619.986 825.709 619.686 825.902Q619.386 826.094 619.073 826.264Q618.76 826.435 618.435 826.582Q618.111 826.73 617.777 826.854Q617.443 826.979 617.101 827.079Q616.759 827.179 616.411 827.255Q616.063 827.33 615.71 827.381Q615.357 827.431 615.002 827.457Q614.646 827.482 614.29 827.482L417.449 827.483Q416.89 827.483 416.334 827.42Q415.779 827.358 415.234 827.234Q414.689 827.11 414.161 826.927Q413.633 826.743 413.129 826.501Q412.624 826.26 412.15 825.963Q411.676 825.667 411.238 825.32Q410.8 824.973 410.403 824.579Q410.006 824.185 409.656 823.749L249.972 625.173Q249.892 625.073 249.806 624.977Q249.721 624.881 249.63 624.79Q249.54 624.698 249.445 624.612Q249.35 624.525 249.251 624.444Q249.151 624.362 249.048 624.286Q248.945 624.209 248.838 624.138Q248.731 624.067 248.62 624.002Q248.509 623.937 248.396 623.877Q248.282 623.817 248.165 623.764Q248.048 623.71 247.929 623.662Q247.809 623.615 247.688 623.573Q247.566 623.532 247.443 623.497Q247.319 623.462 247.194 623.433Q247.069 623.404 246.942 623.382Q246.815 623.36 246.688 623.344Q246.56 623.328 246.432 623.319Q246.304 623.31 246.176 623.307Q246.047 623.305 245.919 623.309Q245.79 623.313 245.662 623.323Q245.534 623.334 245.407 623.351Q245.279 623.368 245.153 623.392Q245.027 623.416 244.902 623.446Q244.777 623.476 244.654 623.513Q244.531 623.549 244.41 623.592Q244.288 623.635 244.17 623.684Q244.051 623.733 243.935 623.788Q243.819 623.843 243.705 623.904Q243.592 623.965 243.482 624.031Q243.373 624.098 243.266 624.17Q243.16 624.242 243.058 624.32Q242.955 624.398 242.857 624.48Q242.758 624.563 242.665 624.651L169.922 692.532Q169.789 692.656 169.648 692.77Q169.507 692.884 169.357 692.987Q169.208 693.09 169.052 693.183Q168.896 693.275 168.733 693.355Q168.571 693.436 168.403 693.505Q168.235 693.573 168.062 693.63Q167.89 693.686 167.714 693.73Q167.537 693.773 167.359 693.804Q167.18 693.835 166.999 693.853Q166.819 693.87 166.637 693.875Q166.456 693.88 166.274 693.871Q166.093 693.862 165.913 693.841Q165.733 693.819 165.555 693.784Q165.377 693.75 165.202 693.702Q165.026 693.655 164.855 693.595Q164.684 693.535 164.518 693.462Q164.351 693.39 164.19 693.306Q164.03 693.221 163.875 693.126Q163.721 693.03 163.574 692.924Q163.427 692.817 163.289 692.7Q163.15 692.583 163.02 692.457Q162.89 692.33 162.77 692.194Q162.649 692.058 162.539 691.914Q162.429 691.77 162.329 691.618Q162.23 691.467 162.142 691.308Q162.053 691.149 161.977 690.985Q161.9 690.82 161.836 690.651Q161.772 690.481 161.72 690.307Q161.668 690.133 161.628 689.956Q161.589 689.779 161.563 689.599Q161.537 689.42 161.524 689.239Q161.511 689.058 161.51 688.877L161.51 433.145Q161.51 433.022 161.517 432.899Q161.523 432.777 161.535 432.655Q161.547 432.533 161.565 432.411Q161.583 432.29 161.607 432.169Q161.631 432.049 161.66 431.93Q161.69 431.811 161.726 431.693Q161.761 431.576 161.803 431.46Q161.844 431.345 161.891 431.231Q161.938 431.118 161.991 431.007Q162.043 430.896 162.101 430.788Q162.159 430.68 162.222 430.574Q162.285 430.469 162.353 430.367Q162.421 430.265 162.494 430.166Q162.568 430.068 162.645 429.973Q162.723 429.878 162.806 429.787Q162.888 429.696 162.975 429.609Q163.062 429.522 163.153 429.44Q163.244 429.358 163.339 429.28Q163.433 429.202 163.532 429.129Q163.631 429.056 163.733 428.987Q163.835 428.919 163.94 428.856Q164.045 428.793 164.154 428.735Q164.262 428.677 164.373 428.625Q164.484 428.572 164.597 428.525Q164.71 428.478 164.826 428.437Q164.942 428.396 165.059 428.36Q165.176 428.324 165.296 428.295Q165.415 428.265 165.535 428.241Q165.655 428.217 165.777 428.199Q165.898 428.181 166.02 428.169Q166.143 428.157 166.265 428.151Q166.388 428.145 166.51 428.145L439.451 428.145Q439.637 428.145 439.822 428.159Q440.007 428.173 440.191 428.2Q440.375 428.228 440.556 428.269Q440.737 428.31 440.915 428.364Q441.093 428.419 441.266 428.486Q441.439 428.554 441.606 428.634Q441.774 428.714 441.935 428.806Q442.097 428.898 442.25 429.003Q442.404 429.107 442.55 429.222Q442.696 429.337 442.833 429.463Q442.97 429.588 443.097 429.724Q443.224 429.859 443.341 430.004Q443.458 430.148 443.563 430.301Q443.669 430.454 443.763 430.614Q443.857 430.775 443.939 430.941Q444.021 431.108 444.09 431.281Q444.159 431.453 444.216 431.63Q444.272 431.807 444.315 431.988Q444.358 432.169 444.388 432.352Q444.417 432.536 444.433 432.721Q444.449 432.906 444.451 433.092Q444.453 433.277 444.441 433.463Q444.429 433.648 444.403 433.832Q444.378 434.016 444.339 434.198Q444.3 434.38 444.247 434.558Q444.195 434.736 444.129 434.91Q444.063 435.084 443.985 435.252Q443.907 435.421 443.816 435.583Q443.726 435.745 443.623 435.9Q443.521 436.055 443.407 436.202Q443.294 436.35 443.169 436.488Q443.045 436.626 442.911 436.754L359.2 517.007Q359.114 517.089 359.032 517.176Q358.95 517.262 358.872 517.352Q358.795 517.442 358.721 517.536Q358.648 517.63 358.579 517.727Q358.511 517.824 358.447 517.924Q358.383 518.024 358.323 518.127Q358.264 518.23 358.21 518.336Q358.156 518.442 358.107 518.55Q358.057 518.659 358.013 518.769Q357.97 518.88 357.931 518.992Q357.892 519.105 357.859 519.219Q357.826 519.333 357.798 519.449Q357.77 519.564 357.748 519.681Q357.726 519.798 357.709 519.916Q357.692 520.034 357.681 520.152Q357.67 520.27 357.665 520.389Q357.66 520.508 357.66 520.627Q357.66 520.746 357.666 520.865Q357.672 520.984 357.683 521.102Q357.695 521.22 357.712 521.338Q357.729 521.456 357.752 521.572Q357.775 521.689 357.803 521.805Q357.831 521.92 357.865 522.034Q357.899 522.148 357.938 522.261Q357.977 522.373 358.021 522.483Q358.066 522.594 358.115 522.702Q358.165 522.81 358.22 522.915Q358.274 523.021 358.334 523.124Q358.394 523.227 358.458 523.327Q358.523 523.427 358.592 523.523Q358.661 523.62 358.734 523.714Q358.808 523.807 358.886 523.897L507.263 694.582Q507.365 694.7 507.474 694.81Q507.583 694.921 507.699 695.025Q507.814 695.128 507.936 695.225Q508.058 695.321 508.186 695.41Q508.313 695.498 508.446 695.579Q508.579 695.659 508.717 695.731Q508.854 695.803 508.996 695.867Q509.138 695.93 509.284 695.985Q509.429 696.039 509.578 696.084Q509.726 696.13 509.877 696.166Q510.028 696.202 510.181 696.228Q510.335 696.255 510.489 696.272Q510.643 696.289 510.799 696.296Q510.954 696.304 511.109 696.301Q511.264 696.299 511.419 696.287Q511.574 696.276 511.728 696.254Q511.882 696.232 512.034 696.202Q512.186 696.17 512.336 696.13Q512.486 696.09 512.634 696.04Q512.781 695.99 512.925 695.932Q513.068 695.873 513.208 695.806Q513.348 695.738 513.484 695.662Q513.619 695.586 513.75 695.502Q513.88 695.418 514.005 695.325Q514.13 695.233 514.249 695.133Q514.368 695.033 514.481 694.926Q514.594 694.82 514.699 694.706Q514.805 694.592 514.904 694.472Q515.002 694.352 515.093 694.226Q515.184 694.1 515.267 693.968Q515.349 693.837 515.424 693.701Q515.498 693.564 515.564 693.423L669.742 364.37Q669.809 364.228 669.867 364.082Q669.924 363.936 669.972 363.787Q670.021 363.637 670.06 363.485Q670.098 363.333 670.128 363.179Q670.157 363.024 670.176 362.869Q670.196 362.713 670.205 362.556Q670.215 362.399 670.215 362.242Q670.215 362.085 670.205 361.929Q670.194 361.772 670.175 361.616Q670.155 361.461 670.125 361.306Q670.095 361.152 670.056 361Q670.017 360.848 669.968 360.699Q669.92 360.55 669.862 360.404Q669.804 360.258 669.737 360.116Q669.67 359.974 669.594 359.836Q669.518 359.699 669.434 359.566Q669.35 359.434 669.258 359.307Q669.165 359.18 669.065 359.059Q668.965 358.938 668.857 358.824Q668.75 358.709 668.635 358.602Q668.521 358.495 668.4 358.395Q668.279 358.294 668.152 358.202Q668.025 358.11 667.892 358.026Q667.759 357.942 667.622 357.866Q667.484 357.791 667.342 357.724Q667.2 357.657 667.054 357.599Q666.908 357.542 666.759 357.493Q666.609 357.445 666.457 357.406Q666.305 357.367 666.151 357.337Q665.997 357.308 665.841 357.288Q665.685 357.269 665.529 357.259Q665.372 357.249 665.215 357.249L181.51 357.249Q181.02 357.249 180.529 357.225Q180.039 357.201 179.55 357.153Q179.062 357.105 178.576 357.032Q178.09 356.96 177.609 356.865Q177.127 356.769 176.651 356.65Q176.175 356.53 175.705 356.388Q175.235 356.245 174.773 356.08Q174.31 355.914 173.857 355.727Q173.403 355.539 172.959 355.329Q172.516 355.119 172.083 354.887Q171.65 354.656 171.228 354.403Q170.807 354.151 170.399 353.878Q169.991 353.606 169.596 353.313Q169.202 353.021 168.823 352.709Q168.443 352.398 168.079 352.068Q167.715 351.738 167.368 351.391Q167.021 351.044 166.691 350.68Q166.362 350.316 166.05 349.937Q165.739 349.557 165.446 349.163Q165.154 348.769 164.881 348.36Q164.608 347.952 164.356 347.531Q164.104 347.11 163.872 346.677Q163.641 346.244 163.431 345.8Q163.221 345.356 163.033 344.903Q162.845 344.449 162.68 343.987Q162.514 343.524 162.372 343.055Q162.229 342.585 162.11 342.109Q161.991 341.632 161.895 341.151Q161.799 340.669 161.727 340.184Q161.655 339.698 161.607 339.209Q161.559 338.721 161.535 338.23Q161.51 337.74 161.51 337.249Z" id="path_2"/>
    <clipPath id="clip_1">
      <use xlink:href="#path_1" clip-rule="evenodd" fill-rule="evenodd"/>
    </clipPath>
    <clipPath id="clip_2">
      <use xlink:href="#path_2"/>
    </clipPath>
  </defs>
  <g id="jss-simp" clip-path="url(#clip_1)">
    <path d="M1024 0L1024 0L1024 1024L0 1024L0 0L1024 0Z" id="jss-simp" fill="none" stroke="none"/>
    <g id="jsimple-studios-logo" filter="url(#filter_1)">
      <use stroke="none" fill="url(#gradient_1)" xlink:href="#path_2" fill-rule="evenodd"/>
      <g clip-path="url(#clip_2)">
        <use xlink:href="#path_2" fill="none" stroke="url(#gradient_2)" stroke-width="36" stroke-linejoin="round"/>
      </g>
    </g>
  </g>
</svg>